<svg xmlns="http://www.w3.org/2000/svg" xmlns:xlink="http://www.w3.org/1999/xlink" width="1366" zoomAndPan="magnify" viewBox="0 0 1024.5 576" height="768" preserveAspectRatio="xMidYMid meet" version="1.0"><defs><clipPath id="394899083a"><path d="M 299 330 L 669.953125 330 L 669.953125 479 L 299 479 Z M 299 330 " clip-rule="nonzero"/></clipPath></defs><path fill="#aa0000" d="M 421.011719 335.285156 C 362.621094 288.847656 351.507812 271.160156 353.460938 227.78125 C 353.859375 218.988281 357.8125 211.464844 366.738281 202.542969 C 377.566406 191.714844 382.042969 189.828125 396.902344 189.828125 C 418.441406 189.828125 426.152344 193.789062 437.703125 210.785156 L 446.734375 224.078125 L 453.238281 213.070312 C 473.425781 178.894531 524.089844 184.171875 536.570312 221.75 C 544.695312 246.207031 538.820312 269.476562 518.558594 293.117188 C 509.960938 303.148438 449.625 354.359375 446.402344 354.359375 C 445.628906 354.359375 434.203125 345.777344 421.011719 335.285156 Z M 421.011719 335.285156 " fill-opacity="1" fill-rule="nonzero"/><g clip-path="url(#394899083a)"><path fill="#ffffff" d="M 305.46875 330.644531 C 310.292969 330.359375 317.300781 338.488281 327.238281 355.550781 C 347.71875 390.707031 382.546875 424.980469 406.476562 433.523438 C 425.894531 440.453125 434.089844 440.023438 460.734375 430.652344 C 473.523438 426.15625 494.082031 421.363281 506.425781 420.003906 L 528.859375 417.535156 L 509.886719 416.964844 C 497.808594 416.601562 480.824219 419.910156 463.1875 426.074219 C 433.488281 436.449219 413.554688 436.269531 397.046875 425.46875 C 378.097656 413.066406 393.429688 400.417969 432.605469 396.136719 C 467.671875 392.304688 487.101562 385.238281 514.96875 366.199219 C 551.355469 341.339844 584.648438 337.253906 649.703125 349.664062 L 669.578125 353.453125 L 668.621094 386.816406 C 667.726562 417.746094 667.132812 420.019531 660.507812 417.914062 C 656.574219 416.667969 643.023438 415.644531 630.386719 415.644531 C 609.121094 415.644531 602.957031 417.878906 547.570312 445.667969 C 514.660156 462.183594 485.203125 476.539062 482.117188 477.570312 C 474.070312 480.265625 457.609375 476.667969 429.765625 466.125 C 416.398438 461.0625 395.320312 453.742188 382.929688 449.851562 C 356.957031 441.703125 343.5625 429.320312 324.53125 395.828125 C 305.925781 363.09375 297.632812 342.792969 300.164062 336.195312 C 301.527344 332.644531 303.273438 330.773438 305.46875 330.644531 Z M 328.960938 334.0625 C 332.945312 334.359375 339.371094 338.585938 345.300781 345.632812 C 351.742188 353.289062 354.976562 355.164062 354.976562 351.242188 C 354.976562 340.609375 365.339844 345.054688 376.773438 360.597656 C 382.941406 368.988281 393.160156 379.671875 399.476562 384.332031 C 411.460938 393.175781 411.21875 397.699219 398.75 397.699219 C 391.328125 397.699219 361.578125 373.644531 364.894531 370.324219 C 365.882812 369.335938 364.898438 367.421875 362.707031 366.066406 C 360.511719 364.710938 358.742188 365.800781 358.769531 368.492188 C 358.796875 371.183594 366.390625 379.925781 375.640625 387.914062 C 388.90625 399.371094 391.5625 403.515625 388.214844 407.542969 C 381.84375 415.222656 380.054688 414.296875 359.675781 392.746094 C 342.230469 374.300781 325.0625 347.15625 325.0625 338.015625 C 325.0625 335.125 326.574219 333.886719 328.960938 334.0625 Z M 328.960938 334.0625 " fill-opacity="1" fill-rule="nonzero"/></g></svg>