<?xml version="1.0" encoding="UTF-8" standalone="no"?> <svg width="64" height="64" viewBox="0 0 64 64" fill="none" xmlns="http://www.w3.org/2000/svg">
<path d="M14.9 26.373L10.876 21.343C10.6299 21.0353 10.3256 20.7791 9.98053 20.589C9.63542 20.3988 9.25624 20.2786 8.86465 20.235C8.47305 20.1915 8.07671 20.2255 7.69827 20.3351C7.31982 20.4448 6.96667 20.6279 6.659 20.874L4 23L10 31C10.9315 32.242 12.1393 33.25 13.5279 33.9443C14.9164 34.6386 16.4475 35 18 35H57V32C57 31.2044 56.6839 30.4413 56.1213 29.8787C55.5587 29.3161 54.7956 29 54 29H20.364C19.3146 28.9997 18.2786 28.7635 17.3328 28.3087C16.387 27.854 15.5556 27.1925 14.9 26.373V26.373Z" fill="#ADE8F4"/>
<path d="M18 41H14V57H18V41Z" fill="#D0D8DA"/>
<path d="M16 44V49C16.0016 49.5299 16.2128 50.0377 16.5875 50.4125C16.9623 50.7872 17.4701 50.9984 18 51V57H14V41H18V43H17C16.7348 43 16.4804 43.1054 16.2929 43.2929C16.1054 43.4804 16 43.7348 16 44Z" fill="#B8BEBF"/>
<path d="M61 35H3V41H61V35Z" fill="#E9F1F2"/>
<path d="M14 61C16.2091 61 18 59.2091 18 57C18 54.7909 16.2091 53 14 53C11.7909 53 10 54.7909 10 57C10 59.2091 11.7909 61 14 61Z" fill="#93999A"/>
<path d="M46 57H50V41H46V57Z" fill="#D0D8DA"/>
<path d="M48 44V49C48.0016 49.5299 48.2128 50.0377 48.5875 50.4125C48.9623 50.7872 49.4701 50.9984 50 51V57H46V41H50V43H49C48.7348 43 48.4804 43.1054 48.2929 43.2929C48.1054 43.4804 48 43.7348 48 44Z" fill="#B8BEBF"/>
<path d="M50 61C52.2091 61 54 59.2091 54 57C54 54.7909 52.2091 53 50 53C47.7909 53 46 54.7909 46 57C46 59.2091 47.7909 61 50 61Z" fill="#93999A"/>
<path d="M46 41H18V49H46V41Z" fill="#B8BEBF"/>
<path d="M43 10H41C39.8954 10 39 10.8954 39 12V16C39 17.1046 39.8954 18 41 18H43C44.1046 18 45 17.1046 45 16V12C45 10.8954 44.1046 10 43 10Z" fill="#FF7373"/>
<path d="M51 3C51.5304 3 52.0391 3.21071 52.4142 3.58579C52.7893 3.96086 53 4.46957 53 5V29H49V5C49 4.46957 49.2107 3.96086 49.5858 3.58579C49.9609 3.21071 50.4696 3 51 3Z" fill="#E9F1F2"/>
<path d="M26 9H23V6H19V9H16V13H19V16H23V13H26V9Z" fill="#95D5B2"/>
<path d="M61 23H57V35H61V23Z" fill="#E9F1F2"/>
<path d="M26 11V13H23V16H19V13H16V9H19V6H21V9C21.0016 9.52995 21.2128 10.0377 21.5875 10.4125C21.9623 10.7872 22.4701 10.9984 23 11H26Z" fill="#52B788"/>
<path d="M45 16C44.9984 16.5299 44.7872 17.0377 44.4125 17.4125C44.0377 17.7872 43.5299 17.9984 43 18H41C40.4701 17.9984 39.9623 17.7872 39.5875 17.4125C39.2128 17.0377 39.0016 16.5299 39 16V12C39.0016 11.4701 39.2128 10.9623 39.5875 10.5875C39.9623 10.2128 40.4701 10.0016 41 10V14C41.0016 14.5299 41.2128 15.0377 41.5875 15.4125C41.9623 15.7872 42.4701 15.9984 43 16H45Z" fill="#EF5350"/>
<path d="M53 27V29H49V5C49.0016 4.47005 49.2128 3.96227 49.5875 3.58753C49.9623 3.2128 50.4701 3.00158 51 3V25C51.0016 25.5299 51.2128 26.0377 51.5875 26.4125C51.9623 26.7872 52.4701 26.9984 53 27V27Z" fill="#D0D8DA"/>
<path d="M61 33V35H57V23H59V31C59.0016 31.5299 59.2128 32.0377 59.5875 32.4125C59.9623 32.7872 60.4701 32.9984 61 33V33Z" fill="#D0D8DA"/>
<path d="M45 38V35H43V38H40C39.7348 38 39.4804 37.8946 39.2929 37.7071C39.1054 37.5196 39 37.2652 39 37V35H37V38H33V35H31V38H27V35H25V38H21V35H19V38H9C8.20435 38 7.44129 37.6839 6.87868 37.1213C6.31607 36.5587 6 35.7956 6 35H3V41H61V38H45Z" fill="#D0D8DA"/>
<path d="M50 59C51.1046 59 52 58.1046 52 57C52 55.8954 51.1046 55 50 55C48.8954 55 48 55.8954 48 57C48 58.1046 48.8954 59 50 59Z" fill="#B8BEBF"/>
<path d="M14 59C15.1046 59 16 58.1046 16 57C16 55.8954 15.1046 55 14 55C12.8954 55 12 55.8954 12 57C12 58.1046 12.8954 59 14 59Z" fill="#B8BEBF"/>
<path d="M46 41V49H44V45C43.9984 44.4701 43.7872 43.9623 43.4125 43.5875C43.0377 43.2128 42.5299 43.0016 42 43H23C22.4701 43.0016 21.9623 43.2128 21.5875 43.5875C21.2128 43.9623 21.0016 44.4701 21 45V49H18V41H46Z" fill="#93999A"/>
<path d="M54 29H53.19C52.6651 29.9122 51.9089 30.6699 50.9977 31.1966C50.0865 31.7233 49.0525 32.0004 48 32H46V29H43V32H40V29H37V32H34V29H31V32H28V29H25V32H22V29H19V32C17.4481 31.9968 15.9181 31.634 14.53 30.94C13.142 30.2459 11.9337 29.2396 11 28C10.3155 27.0844 9.959 25.9651 9.98802 24.8223C10.017 23.6794 10.4299 22.5797 11.16 21.7L10.87 21.34C10.3733 20.7204 9.65129 20.3231 8.86213 20.235C8.07297 20.1469 7.28107 20.3752 6.66 20.87L4 23L10 31C10.9311 32.2424 12.1389 33.2507 13.5275 33.945C14.9161 34.6393 16.4475 35.0005 18 35H57V32C57 31.2043 56.6839 30.4413 56.1213 29.8787C55.5587 29.3161 54.7956 29 54 29Z" fill="#48CAE4"/>
<path d="M14 58C14.5523 58 15 57.5523 15 57C15 56.4477 14.5523 56 14 56C13.4477 56 13 56.4477 13 57C13 57.5523 13.4477 58 14 58Z" fill="#464A51"/>
<path d="M50 58C50.5523 58 51 57.5523 51 57C51 56.4477 50.5523 56 50 56C49.4477 56 49 56.4477 49 57C49 57.5523 49.4477 58 50 58Z" fill="#464A51"/>
<path d="M16 14H18V16C18 16.2652 18.1054 16.5196 18.2929 16.7071C18.4804 16.8946 18.7348 17 19 17H23C23.2652 17 23.5196 16.8946 23.7071 16.7071C23.8946 16.5196 24 16.2652 24 16V14H26C26.2652 14 26.5196 13.8946 26.7071 13.7071C26.8946 13.5196 27 13.2652 27 13V9C27 8.73478 26.8946 8.48043 26.7071 8.29289C26.5196 8.10536 26.2652 8 26 8H24V6C24 5.73478 23.8946 5.48043 23.7071 5.29289C23.5196 5.10536 23.2652 5 23 5H19C18.7348 5 18.4804 5.10536 18.2929 5.29289C18.1054 5.48043 18 5.73478 18 6V8H16C15.7348 8 15.4804 8.10536 15.2929 8.29289C15.1054 8.48043 15 8.73478 15 9V13C15 13.2652 15.1054 13.5196 15.2929 13.7071C15.4804 13.8946 15.7348 14 16 14ZM17 10H19C19.2652 10 19.5196 9.89464 19.7071 9.70711C19.8946 9.51957 20 9.26522 20 9V7H22V9C22 9.26522 22.1054 9.51957 22.2929 9.70711C22.4804 9.89464 22.7348 10 23 10H25V12H23C22.7348 12 22.4804 12.1054 22.2929 12.2929C22.1054 12.4804 22 12.7348 22 13V15H20V13C20 12.7348 19.8946 12.4804 19.7071 12.2929C19.5196 12.1054 19.2652 12 19 12H17V10Z" fill="#464A51"/>
<path d="M61 32C61.2652 32 61.5196 31.8946 61.7071 31.7071C61.8946 31.5196 62 31.2652 62 31V23C62 22.7348 61.8946 22.4804 61.7071 22.2929C61.5196 22.1054 61.2652 22 61 22H57C56.7348 22 56.4804 22.1054 56.2929 22.2929C56.1054 22.4804 56 22.7348 56 23V28.556C55.3947 28.1961 54.7043 28.0041 54 28V7H58C58.2652 7 58.5196 6.89464 58.7071 6.70711C58.8946 6.51957 59 6.26522 59 6C59 5.73478 58.8946 5.48043 58.7071 5.29289C58.5196 5.10536 58.2652 5 58 5H54C54 4.20435 53.6839 3.44129 53.1213 2.87868C52.5587 2.31607 51.7956 2 51 2C50.2044 2 49.4413 2.31607 48.8787 2.87868C48.3161 3.44129 48 4.20435 48 5H43V4C43 3.73478 42.8946 3.48043 42.7071 3.29289C42.5196 3.10536 42.2652 3 42 3C41.7348 3 41.4804 3.10536 41.2929 3.29289C41.1054 3.48043 41 3.73478 41 4V5H39C38.7348 5 38.4804 5.10536 38.2929 5.29289C38.1054 5.48043 38 5.73478 38 6C38 6.26522 38.1054 6.51957 38.2929 6.70711C38.4804 6.89464 38.7348 7 39 7H41V9C40.2044 9 39.4413 9.31607 38.8787 9.87868C38.3161 10.4413 38 11.2044 38 12V16C38 16.7956 38.3161 17.5587 38.8787 18.1213C39.4413 18.6839 40.2044 19 41 19H43C43.7956 19 44.5587 18.6839 45.1213 18.1213C45.6839 17.5587 46 16.7956 46 16V12C46 11.2044 45.6839 10.4413 45.1213 9.87868C44.5587 9.31607 43.7956 9 43 9V7H48V17C48 17.2652 48.1054 17.5196 48.2929 17.7071C48.4804 17.8946 48.7348 18 49 18C49.2652 18 49.5196 17.8946 49.7071 17.7071C49.8946 17.5196 50 17.2652 50 17V5C50 4.73478 50.1054 4.48043 50.2929 4.29289C50.4804 4.10536 50.7348 4 51 4C51.2652 4 51.5196 4.10536 51.7071 4.29289C51.8946 4.48043 52 4.73478 52 5V28H50V21C50 20.7348 49.8946 20.4804 49.7071 20.2929C49.5196 20.1054 49.2652 20 49 20C48.7348 20 48.4804 20.1054 48.2929 20.2929C48.1054 20.4804 48 20.7348 48 21V28H46.9C46.6679 26.8714 46.0538 25.8573 45.1613 25.1287C44.2687 24.4001 43.1522 24.0015 42 24H26C24.8478 24.0015 23.7313 24.4001 22.8387 25.1287C21.9462 25.8573 21.3321 26.8714 21.1 28H20.363C19.463 28.002 18.5741 27.8005 17.7629 27.4107C16.9516 27.0209 16.2389 26.4529 15.678 25.749L11.654 20.718C10.9906 19.8908 10.0261 19.3604 8.97221 19.2433C7.91829 19.1261 6.86093 19.4317 6.032 20.093L3.375 22.219C3.17213 22.3813 3.04042 22.6163 3.00776 22.8741C2.97509 23.1318 3.04404 23.3922 3.2 23.6L5.989 27.319C6.14813 27.5312 6.38503 27.6714 6.64758 27.709C6.91013 27.7465 7.17683 27.6781 7.389 27.519C7.60117 27.3599 7.74144 27.123 7.77895 26.8604C7.81646 26.5979 7.74813 26.3312 7.589 26.119L5.381 23.175L7.281 21.655C7.69515 21.3236 8.22396 21.1704 8.75111 21.2289C9.27827 21.2874 9.76059 21.5529 10.092 21.967L14.118 27C14.8656 27.9385 15.8158 28.6959 16.8974 29.2154C17.979 29.7349 19.1641 30.0031 20.364 30H21V34H18C16.6034 33.9966 15.2266 33.6698 13.9774 33.0452C12.7282 32.4206 11.6407 31.5152 10.8 30.4L9.99 29.32C9.91121 29.2149 9.81249 29.1264 9.69949 29.0595C9.58649 28.9926 9.46142 28.9486 9.33142 28.93C9.20142 28.9115 9.06903 28.9187 8.94182 28.9513C8.81461 28.9839 8.69506 29.0412 8.59 29.12C8.48494 29.1988 8.39643 29.2975 8.32953 29.4105C8.26262 29.5235 8.21862 29.6486 8.20005 29.7786C8.18148 29.9086 8.1887 30.041 8.22129 30.1682C8.25388 30.2954 8.31121 30.4149 8.39 30.52L9.2 31.6C9.90326 32.5284 10.7503 33.3386 11.709 34H3C2.73478 34 2.48043 34.1054 2.29289 34.2929C2.10536 34.4804 2 34.7348 2 35V41C2 41.2652 2.10536 41.5196 2.29289 41.7071C2.48043 41.8946 2.73478 42 3 42H13V52.1C12.0731 52.2892 11.2189 52.7375 10.5366 53.3928C9.85424 54.0481 9.37184 54.8835 9.14538 55.8021C8.91891 56.7206 8.95768 57.6845 9.25717 58.5819C9.55666 59.4793 10.1046 60.2732 10.8373 60.8716C11.5701 61.47 12.4575 61.8483 13.3966 61.9624C14.3358 62.0766 15.288 61.922 16.1427 61.5166C16.9975 61.1112 17.7197 60.4716 18.2255 59.6721C18.7312 58.8726 18.9998 57.946 19 57V50H42C42.2652 50 42.5196 49.8946 42.7071 49.7071C42.8946 49.5196 43 49.2652 43 49C43 48.7348 42.8946 48.4804 42.7071 48.2929C42.5196 48.1054 42.2652 48 42 48H19V41C19 40.7348 18.8946 40.4804 18.7071 40.2929C18.5196 40.1054 18.2652 40 18 40H4V36H21V41C21 41.2652 21.1054 41.5196 21.2929 41.7071C21.4804 41.8946 21.7348 42 22 42H45V57C45.0002 57.946 45.2688 58.8726 45.7745 59.6721C46.2803 60.4716 47.0025 61.1112 47.8573 61.5166C48.712 61.922 49.6643 62.0766 50.6034 61.9624C51.5425 61.8483 52.4299 61.47 53.1627 60.8716C53.8954 60.2732 54.4433 59.4793 54.7428 58.5819C55.0423 57.6845 55.0811 56.7206 54.8546 55.8021C54.6282 54.8835 54.1458 54.0481 53.4634 53.3928C52.7811 52.7375 51.9269 52.2892 51 52.1V45C51 44.7348 50.8946 44.4804 50.7071 44.2929C50.5196 44.1054 50.2652 44 50 44C49.7348 44 49.4804 44.1054 49.2929 44.2929C49.1054 44.4804 49 44.7348 49 45V52.1C48.2723 52.2543 47.5888 52.5704 47 53.025V42H61C61.2652 42 61.5196 41.8946 61.7071 41.7071C61.8946 41.5196 62 41.2652 62 41V35C62 34.7348 61.8946 34.4804 61.7071 34.2929C61.5196 34.1054 61.2652 34 61 34H58V24H60V31C60 31.2652 60.1054 31.5196 60.2929 31.7071C60.4804 31.8946 60.7348 32 61 32ZM44 12V16C44 16.2652 43.8946 16.5196 43.7071 16.7071C43.5196 16.8946 43.2652 17 43 17H41C40.7348 17 40.4804 16.8946 40.2929 16.7071C40.1054 16.5196 40 16.2652 40 16V12C40 11.7348 40.1054 11.4804 40.2929 11.2929C40.4804 11.1054 40.7348 11 41 11H43C43.2652 11 43.5196 11.1054 43.7071 11.2929C43.8946 11.4804 44 11.7348 44 12ZM14 60C13.4067 60 12.8266 59.8241 12.3333 59.4944C11.8399 59.1648 11.4554 58.6962 11.2284 58.148C11.0013 57.5999 10.9419 56.9967 11.0576 56.4147C11.1734 55.8328 11.4591 55.2982 11.8787 54.8787C12.2982 54.4591 12.8328 54.1734 13.4147 54.0576C13.9967 53.9419 14.5999 54.0013 15.1481 54.2284C15.6962 54.4554 16.1648 54.8399 16.4944 55.3333C16.8241 55.8266 17 56.4067 17 57C17 57.7956 16.6839 58.5587 16.1213 59.1213C15.5587 59.6839 14.7956 60 14 60V60ZM17 53.026C16.4112 52.5714 15.7277 52.2553 15 52.101V42H17V53.026ZM45 40H35V36H39V37C39 37.2652 39.1054 37.5196 39.2929 37.7071C39.4804 37.8946 39.7348 38 40 38C40.2652 38 40.5196 37.8946 40.7071 37.7071C40.8946 37.5196 41 37.2652 41 37V36H45V40ZM39 30V34H35V30H39ZM29 28V26H39V28H29ZM33 30V34H29V30H33ZM33 36V40H29V36H33ZM41 34V30H45V34H41ZM44.816 28H41V26H42C42.6183 26.0026 43.2206 26.1961 43.7247 26.5541C44.2288 26.9121 44.6099 27.4171 44.816 28V28ZM26 26H27V28H23.184C23.3901 27.4171 23.7712 26.9121 24.2753 26.5541C24.7794 26.1961 25.3817 26.0026 26 26V26ZM23 30H27V34H23V30ZM23 36H27V40H23V36ZM50 54C50.5933 54 51.1734 54.1759 51.6667 54.5056C52.1601 54.8352 52.5446 55.3038 52.7716 55.852C52.9987 56.4001 53.0581 57.0033 52.9424 57.5853C52.8266 58.1672 52.5409 58.7018 52.1213 59.1213C51.7018 59.5409 51.1672 59.8266 50.5853 59.9424C50.0033 60.0581 49.4001 59.9987 48.852 59.7716C48.3038 59.5446 47.8352 59.1601 47.5056 58.6667C47.1759 58.1734 47 57.5933 47 57C47 56.2044 47.3161 55.4413 47.8787 54.8787C48.4413 54.3161 49.2044 54 50 54V54ZM60 40H47V36H60V40ZM47 34V30H54C54.5304 30 55.0391 30.2107 55.4142 30.5858C55.7893 30.9609 56 31.4696 56 32V34H47Z" fill="#464A51"/>
</svg>
