<?xml version="1.0" encoding="utf-8"?>
<!-- Generator: Adobe Illustrator 26.0.2, SVG Export Plug-In . SVG Version: 6.00 Build 0)  -->
<svg version="1.1" id="Layer_3" xmlns="http://www.w3.org/2000/svg" xmlns:xlink="http://www.w3.org/1999/xlink" x="0px" y="0px"
	 viewBox="0 0 64 64" style="enable-background:new 0 0 64 64;" xml:space="preserve">
<g>
	<path style="fill:#AA2B24;" d="M18,20v37c0,2.761,2.239,5,5,5s5-2.239,5-5V20H18z"/>
	<path style="fill:#D24034;" d="M18,20v37c0,0.343,0.035,0.677,0.101,1H21c2.209,0,4-1.791,4-4V20H18z"/>
	<rect x="16" y="2" style="fill:#BCE4F8;" width="14" height="18"/>
	<rect x="20" y="6" style="fill:#E4F5FD;" width="6" height="14"/>
	<g>
		<rect x="16" y="5" style="fill:#8DABBA;" width="14" height="2"/>
	</g>
	<rect x="22" y="26" style="fill:#BCE4F8;" width="6" height="28"/>
	<rect x="21.979" y="26" style="fill:#E4F5FD;" width="3" height="28"/>
	<path style="fill:#AA2B24;" d="M36,20v37c0,2.761,2.239,5,5,5s5-2.239,5-5V20H36z"/>
	<path style="fill:#D24034;" d="M36,20v37c0,0.343,0.035,0.677,0.101,1H39c2.209,0,4-1.791,4-4V20H36z"/>
	<rect x="34" y="2" style="fill:#BCE4F8;" width="14" height="18"/>
	<rect x="38" y="6" style="fill:#E4F5FD;" width="6" height="14"/>
	<g>
		<rect x="34" y="5" style="fill:#8DABBA;" width="14" height="2"/>
	</g>
	<rect x="40" y="26" style="fill:#BCE4F8;" width="6" height="28"/>
	<rect x="39.979" y="26" style="fill:#E4F5FD;" width="3" height="28"/>
</g>
</svg>
