<svg version="1.1" id="Layer_1" xmlns="http://www.w3.org/2000/svg" xmlns:xlink="http://www.w3.org/1999/xlink" x="0px" y="0px" viewBox="0 0 53 53" style="enable-background:new 0 0 53 53;" xml:space="preserve">
<g>
	<polygon points="30.1151352,40.571804 32.2518539,40.571804 31.2159653,37.5571556 	" id="id_101" style="fill: rgb(11, 19, 20);"></polygon>
	<path d="M38.5692368,39.2665672c0.3405762-0.1703491,0.5109863-0.4769287,0.5109863-0.9197388
		c0-0.4459229-0.1812744-0.7462769-0.5435791-0.901123c-0.2043457-0.086731-0.5079346-0.1300659-0.9104004-0.1300659h-1.6490479
		v2.1135254h1.6815186C38.0489731,39.4291649,38.3524399,39.3749657,38.5692368,39.2665672z" id="id_102" style="fill: rgb(9, 14, 15);"></path>
	<path d="M38.7457504,40.3210106c-0.2353516-0.0960083-0.5466309-0.144043-0.9337158-0.144043h-1.8348389v2.4015503h1.9926758
		c0.5667725,0,0.9709473-0.1641235,1.2124023-0.4923706c0.1518555-0.2075195,0.2276611-0.458374,0.2276611-0.7525024
		C39.409935,40.8381615,39.1884995,40.500576,38.7457504,40.3210106z" id="id_103"></path>
	<path d="M46.5680161,39.9591331c0-4.9804688-3.5693359-9.1464844-8.4863281-9.90625
		c-0.0839844-0.0126953-0.1230469-0.0185547-0.1621094-0.0283203c-0.4394531-0.0605469-0.9199219-0.0957031-1.3818359-0.0957031
		c-0.4501953,0-0.8955078,0.0283203-1.3242188,0.0859375c-4.9628906,0.6542969-8.7060547,4.9296875-8.7060547,9.9443359
		c0,2.6484375,1.0214844,5.1445313,2.8769531,7.0292969c0.4082031,0.4082031,0.8076172,0.7509766,1.2158203,1.0439453
		c1.7285156,1.2822266,3.7802734,1.9570313,5.9375,1.9570313c0.4619141,0,0.9423828-0.0351563,1.4287109-0.1054688
		C42.8707504,49.182766,46.5680161,44.9161644,46.5680161,39.9591331z M41.1424789,38.1310081h1.5756836v-1.5864868h0.6179199
		v1.5864868h1.5756836v0.6071167h-1.5756836v1.5828857h-0.6179199v-1.5828857h-1.5756836V38.1310081z M33.2413559,43.3681297
		l-0.6921387-2.0438232h-2.6988525l-0.7386475,2.0438232h-0.9475098l2.5687256-6.8236084h1.045166l2.4758301,6.8236084H33.2413559z
		 M35.071434,43.3681297v-6.8236084h2.9310303c0.7989502,0,1.3671875,0.2384644,1.7047119,0.7153931
		c0.1982422,0.2817993,0.2973633,0.6069336,0.2973633,0.9754639c0,0.4304199-0.1223145,0.7834473-0.3669434,1.059021
		c-0.1269531,0.1455688-0.3098145,0.2787476-0.5480957,0.3994751c0.3498535,0.1331787,0.6115723,0.2833862,0.7849121,0.4506226
		c0.3066406,0.2972412,0.4599609,0.7075806,0.4599609,1.230896c0,0.4397583-0.1379395,0.8377075-0.4134521,1.1937866
		c-0.4118652,0.5326538-1.0667725,0.7989502-1.9649658,0.7989502H35.071434z" id="id_104"></path>
	<path d="M37.4425278,28.9947777c-0.7436523-2.2325439-1.9724121-4.2936401-3.6137695-5.987793
		c-3.2080078-3.3349609-5.609375-7.0761719-7.1386719-11.1210938l-2.9794922-7.9003906
		c-0.1962891-0.5107422-0.6142578-0.8583984-1.1435547-0.9511719c-0.3886719-0.0693359-0.7832031,0.015625-1.0976563,0.2236328
		c0.0693359,0.1201172,0.1279297,0.2451172,0.1767578,0.3740234l2.9794922,7.9003906
		c1.4804688,3.9179688,3.8105469,7.5449219,6.9228516,10.7802734c1.824585,1.8840332,3.1835938,4.1897583,3.958252,6.6833496
		C36.1327133,28.938076,36.779686,28.939785,37.4425278,28.9947777z" id="id_105" style="fill: rgb(255, 156, 177);"></path>
	<path d="M20.8736801,49.9210472c2.6484375-0.2460938,5.1943359-1.1630859,7.3974609-2.6601563
		c-0.0593262-0.0669556-0.1103516-0.1394043-0.1679688-0.2075806c-0.098999-0.1173706-0.1950684-0.2362061-0.2888184-0.3569946
		c-0.1208496-0.1557617-0.2364502-0.3143311-0.3482666-0.4755859c-0.0852051-0.1229248-0.1689453-0.2462158-0.2489014-0.3721313
		c-0.1057129-0.166626-0.2047119-0.3364868-0.3010254-0.5081177c-0.0722656-0.1287231-0.1445313-0.2570801-0.2114258-0.3884277
		c-0.0898438-0.1765137-0.1713867-0.3564453-0.2513428-0.5374756c-0.05896-0.1331177-0.1195068-0.2651978-0.1729736-0.4006348
		c-0.0738525-0.1868896-0.1374512-0.3773804-0.2009277-0.5682373c-0.0449219-0.1351318-0.0932617-0.2687378-0.1330566-0.4056396
		c-0.0581055-0.2007446-0.1040039-0.4050903-0.1506348-0.6094971c-0.0300293-0.1315308-0.0654297-0.2613525-0.0906982-0.3942261
		c-0.043335-0.2282104-0.0721436-0.4598999-0.1011963-0.6917114c-0.0140381-0.1125488-0.0351563-0.2233887-0.0457764-0.3366699
		c-0.0325928-0.3466797-0.0506592-0.6963501-0.0506592-1.0488281c0-0.338623,0.0163574-0.6740112,0.0466309-1.0057373
		c0.0102539-0.1119995,0.03125-0.2208862,0.0449219-0.3319702c0.0266113-0.2182007,0.0517578-0.4369507,0.0911865-0.6513672
		c0.0240479-0.1310425,0.05896-0.2582397,0.0877686-0.3877563c0.0422363-0.1898193,0.0812988-0.3805542,0.1331787-0.5667725
		c0.0384521-0.1383057,0.0871582-0.2722168,0.1309814-0.4083862c0.0552979-0.1724854,0.1079102-0.3460083,0.1713867-0.5148926
		c0.0523682-0.1390381,0.1140137-0.2733154,0.1717529-0.409729c0.067749-0.1599731,0.1329346-0.3208618,0.2078857-0.4769897
		c0.0656738-0.1367798,0.1396484-0.2685547,0.2106934-0.4022217c0.0794678-0.149292,0.1569824-0.2994995,0.2429199-0.4447632
		c0.0783691-0.1321411,0.1636963-0.2590942,0.2471924-0.3876953c0.0904541-0.1392212,0.1794434-0.2789917,0.2758789-0.4138794
		c0.09021-0.1262817,0.1868896-0.2473145,0.2822266-0.3696899c0.1008301-0.1292114,0.2008057-0.258728,0.3071289-0.3833618
		c0.1013184-0.1187134,0.2078857-0.2321777,0.3140869-0.3465576c0.1108398-0.1192627,0.2211914-0.2384033,0.3371582-0.3527222
		c0.1118164-0.1102905,0.2281494-0.2155762,0.3447266-0.321106c0.1201172-0.1088867,0.2403564-0.21698,0.3652344-0.3205566
		c0.1213379-0.100647,0.2463379-0.1964722,0.3720703-0.2919922c0.1290283-0.0980835,0.2587891-0.1948853,0.3922119-0.2872925
		c0.1304932-0.0903931,0.2640381-0.1762695,0.3985596-0.2611694c0.137085-0.0864258,0.2750244-0.1707764,0.4160156-0.2512817
		c0.138916-0.0792236,0.2801514-0.1542358,0.4228516-0.2276001c0.1450195-0.0744019,0.2910156-0.1461182,0.4395752-0.2142334
		c0.1462402-0.0670776,0.2941895-0.1304321,0.4439697-0.1911621c0.1522217-0.0617676,0.3059082-0.1200562,0.4615479-0.1751709
		c0.152832-0.0541382,0.3067627-0.1050415,0.4627686-0.1525269c0.1590576-0.0484009,0.3195801-0.0924072,0.4816895-0.133728
		c0.1591797-0.0405884,0.3188477-0.0785522,0.480957-0.1121826c0.0709229-0.0147095,0.1394043-0.0358887,0.2109375-0.0492554
		c-0.7373047-2.2773438-2-4.3798828-3.6748047-6.1083984c-3.2080078-3.3349609-5.609375-7.0761719-7.1386719-11.1210938
		l-2.9794922-7.9003906c-0.0654297-0.1728516-0.1621094-0.3369141-0.2871094-0.4873047
		c-0.2744141-0.3095703-0.6894531-0.4873047-1.1210938-0.4873047c-0.0947266,0-0.1894531,0.0087891-0.2832031,0.0263672
		c-0.5224609,0.0957031-0.9316406,0.4414063-1.1230469,0.9482422L14.6158667,12.67593
		c-1.3769531,3.6367188-3.6503906,7.1220703-6.7578125,10.359375c-3.2597656,3.4023438-4.8398438,8.0644531-4.3330078,12.7900391
		c0.7861328,7.3095703,6.6611328,13.2207031,13.9697275,14.0566406
		C18.621727,50.0060081,19.7594223,50.0177269,20.8736801,49.9210472z M6.5084448,35.5050316
		c-0.0292969-0.2744141,0.1689453-0.5214844,0.4433594-0.5507813c0.2744141-0.0263672,0.5214844,0.1689453,0.5507813,0.4433594
		c0.5878906,5.4648438,4.9804688,9.8847656,10.4443369,10.5097656c0.2744141,0.03125,0.4716797,0.2792969,0.4404297,0.5537109
		c-0.0292969,0.2548828-0.2460938,0.4433594-0.4960938,0.4433594c-0.0195313,0-0.0380859-0.0009766-0.0576172-0.0029297
		C11.9088354,46.2237816,7.1451635,41.4308128,6.5084448,35.5050316z" id="id_106" style="fill: rgb(209, 19, 60);"></path>
	<path d="M29.3841782,48.3467674c-0.1339111-0.1138916-0.2692871-0.2438354-0.4040527-0.3699951
		c-0.8183594,0.5690918-1.6782227,1.0695801-2.5773926,1.4824829
		C27.4286118,49.1908226,28.4262924,48.8191795,29.3841782,48.3467674z" id="id_107"></path>
	<path d="M49.5680161,39.9591331c0-4.8391724-3.4455566-8.8895264-8.012085-9.8262329
		c3.6087646,1.8221436,6.012085,5.5464478,6.012085,9.8262329c0,4.2325439-2.4570313,7.9989624-6.0778809,9.8362427
		C46.088768,48.8838158,49.5680161,44.8211937,49.5680161,39.9591331z" id="id_108"></path>
</g>
</svg>