<?xml version="1.0" encoding="UTF-8" standalone="no"?> <svg width="64" height="64" viewBox="0 0 64 64" fill="none" xmlns="http://www.w3.org/2000/svg">
<path d="M42.273 11C41.4841 11.0002 40.7128 10.7671 40.056 10.33L29.061 3.008L28.561 3.496C28.2474 3.80255 28.0049 4.17411 27.8505 4.58451C27.696 4.99491 27.6334 5.43419 27.6671 5.8714C27.7007 6.30861 27.8298 6.73313 28.0452 7.11506C28.2607 7.49699 28.5572 7.82705 28.914 8.082L33 11C33 12.3261 33.5268 13.5979 34.4645 14.5355C35.4021 15.4732 36.6739 16 38 16C36.6739 16 35.4021 15.4732 34.4645 14.5355C33.5268 13.5979 33 12.3261 33 11H13C12.4696 11 11.9609 11.2107 11.5858 11.5858C11.2107 11.9609 11 12.4696 11 13C11 13.5304 11.2107 14.0391 11.5858 14.4142C11.9609 14.7893 12.4696 15 13 15H27C27.5304 15 28.0391 15.2107 28.4142 15.5858C28.7893 15.9609 29 16.4696 29 17C29 17.5304 28.7893 18.0391 28.4142 18.4142C28.0391 18.7893 27.5304 19 27 19C27.5304 19 28.0391 19.2107 28.4142 19.5858C28.7893 19.9609 29 20.4696 29 21C29 21.5304 28.7893 22.0391 28.4142 22.4142C28.0391 22.7893 27.5304 23 27 23C27.5304 23 28.0391 23.2107 28.4142 23.5858C28.7893 23.9609 29 24.4696 29 25C29 25.5304 28.7893 26.0391 28.4142 26.4142C28.0391 26.7893 27.5304 27 27 27H37.88C38.6387 26.9802 39.3766 26.7481 40.01 26.33L40.99 25.67C41.6474 25.232 42.42 24.9988 43.21 25H45V11H42.273Z" fill="#FFAC96"/>
<path d="M45 9V11V25V27H53V25V11V9H45Z" fill="#006DF0"/>
<path d="M29 17C29 16.4696 28.7893 15.9609 28.4142 15.5858C28.0391 15.2107 27.5304 15 27 15H23C22.4696 15 21.9609 15.2107 21.5858 15.5858C21.2107 15.9609 21 16.4696 21 17C21 17.5304 21.2107 18.0391 21.5858 18.4142C21.9609 18.7893 22.4696 19 23 19H27C27.5304 19 28.0391 18.7893 28.4142 18.4142C28.7893 18.0391 29 17.5304 29 17Z" fill="#FF9478"/>
<path d="M29 21C29 20.4696 28.7893 19.9609 28.4142 19.5858C28.0391 19.2107 27.5304 19 27 19H23C22.4696 19 21.9609 19.2107 21.5858 19.5858C21.2107 19.9609 21 20.4696 21 21C21 21.5304 21.2107 22.0391 21.5858 22.4142C21.9609 22.7893 22.4696 23 23 23H27C27.5304 23 28.0391 22.7893 28.4142 22.4142C28.7893 22.0391 29 21.5304 29 21Z" fill="#FF9478"/>
<path d="M29 25C29 24.4696 28.7893 23.9609 28.4142 23.5858C28.0391 23.2107 27.5304 23 27 23H23C22.4696 23 21.9609 23.2107 21.5858 23.5858C21.2107 23.9609 21 24.4696 21 25C21 25.5304 21.2107 26.0391 21.5858 26.4142C21.9609 26.7893 22.4696 27 23 27H27C27.5304 27 28.0391 26.7893 28.4142 26.4142C28.7893 26.0391 29 25.5304 29 25Z" fill="#FF9478"/>
<path d="M58 41H32C30.3431 41 29 42.3431 29 44V58C29 59.6569 30.3431 61 32 61H58C59.6569 61 61 59.6569 61 58V44C61 42.3431 59.6569 41 58 41Z" fill="#FFCD00"/>
<path d="M58 41H54.817C54.9347 41.3204 54.9966 41.6587 55 42V56C55 56.7956 54.6839 57.5587 54.1213 58.1213C53.5587 58.6839 52.7957 59 52 59H29.183C29.3874 59.5842 29.7682 60.0905 30.2729 60.4488C30.7776 60.8071 31.3811 60.9997 32 61H58C58.7957 61 59.5587 60.6839 60.1213 60.1213C60.6839 59.5587 61 58.7956 61 58V44C61 43.2044 60.6839 42.4413 60.1213 41.8787C59.5587 41.3161 58.7957 41 58 41Z" fill="#EBBF00"/>
<path d="M47 45H35C33.8954 45 33 45.8954 33 47V55C33 56.1046 33.8954 57 35 57H47C48.1046 57 49 56.1046 49 55V47C49 45.8954 48.1046 45 47 45Z" fill="#7ED63E"/>
<path d="M25 45C24.4696 45 23.9609 45.2107 23.5858 45.5858C23.2107 45.9609 23 46.4696 23 47V55C23 55.5304 23.2107 56.0391 23.5858 56.4142C23.9609 56.7893 24.4696 57 25 57H29V45H25Z" fill="#58595B"/>
<path d="M13 49L14 51L13 53H23V49H13Z" fill="#D1D3D4"/>
<path d="M55 57C56.1046 57 57 56.1046 57 55C57 53.8954 56.1046 53 55 53C53.8954 53 53 53.8954 53 55C53 56.1046 53.8954 57 55 57Z" fill="#91DC5A"/>
<path d="M55 49C56.1046 49 57 48.1046 57 47C57 45.8954 56.1046 45 55 45C53.8954 45 53 45.8954 53 47C53 48.1046 53.8954 49 55 49Z" fill="#ED1C24"/>
<path d="M10 27C10 27.7956 10.3161 28.5587 10.8787 29.1213C11.4413 29.6839 12.2044 30 13 30C13.7956 30 14.5587 29.6839 15.1213 29.1213C15.6839 28.5587 16 27.7956 16 27C16 25.343 13 21 13 21C13 21 10 25.343 10 27Z" fill="#ED1C24"/>
<path d="M61 11H53V25H61V11Z" fill="#57A4FF"/>
<path d="M9 41C9 42.0609 9.42143 43.0783 10.1716 43.8284C10.9217 44.5786 11.9391 45 13 45C14.0609 45 15.0783 44.5786 15.8284 43.8284C16.5786 43.0783 17 42.0609 17 41C17 38.791 13 34 13 34C13 34 9 38.791 9 41Z" fill="#ED1C24"/>
<path d="M56 11H53V25H56V11Z" fill="#2488FF"/>
<path d="M49 21C48.7348 21 48.4804 21.1054 48.2929 21.2929C48.1054 21.4804 48 21.7348 48 22V23C48 23.2652 48.1054 23.5196 48.2929 23.7071C48.4804 23.8946 48.7348 24 49 24C49.2652 24 49.5196 23.8946 49.7071 23.7071C49.8946 23.5196 50 23.2652 50 23V22C50 21.7348 49.8946 21.4804 49.7071 21.2929C49.5196 21.1054 49.2652 21 49 21Z" fill="#231F20"/>
<path d="M58 40H32C30.9391 40 29.9217 40.4214 29.1716 41.1716C28.4214 41.9217 28 42.9391 28 44H25C24.2051 44.0024 23.4434 44.3192 22.8813 44.8813C22.3192 45.4434 22.0024 46.2051 22 47V48H13C12.8295 48.0005 12.662 48.0446 12.5134 48.1281C12.3648 48.2115 12.2399 48.3316 12.1508 48.4769C12.0616 48.6222 12.011 48.7878 12.0039 48.9581C11.9968 49.1285 12.0333 49.2978 12.11 49.45L12.88 51L12.11 52.55C12.0333 52.7022 11.9968 52.8715 12.0039 53.0419C12.011 53.2122 12.0616 53.3778 12.1508 53.5231C12.2399 53.6684 12.3648 53.7885 12.5134 53.8719C12.662 53.9554 12.8295 53.9995 13 54H22V55C22.0024 55.7949 22.3192 56.5566 22.8813 57.1187C23.4434 57.6808 24.2051 57.9976 25 58H28C28 59.0609 28.4214 60.0783 29.1716 60.8284C29.9217 61.5786 30.9391 62 32 62H58C59.0609 62 60.0783 61.5786 60.8284 60.8284C61.5786 60.0783 62 59.0609 62 58V44C62 42.9391 61.5786 41.9217 60.8284 41.1716C60.0783 40.4214 59.0609 40 58 40ZM22 52H14.62L14.89 51.45C14.9639 51.3115 15.0025 51.157 15.0025 51C15.0025 50.843 14.9639 50.6885 14.89 50.55L14.62 50H22V52ZM28 56H25C24.7348 56 24.4804 55.8946 24.2929 55.7071C24.1054 55.5196 24 55.2652 24 55V47C24 46.7348 24.1054 46.4804 24.2929 46.2929C24.4804 46.1054 24.7348 46 25 46H28V56ZM60 58C59.9984 58.5299 59.7872 59.0377 59.4125 59.4125C59.0377 59.7872 58.5299 59.9984 58 60H32C31.47 59.9984 30.9623 59.7872 30.5875 59.4125C30.2128 59.0377 30.0016 58.5299 30 58V44C30.0016 43.4701 30.2128 42.9623 30.5875 42.5875C30.9623 42.2128 31.47 42.0016 32 42H58C58.5299 42.0016 59.0377 42.2128 59.4125 42.5875C59.7872 42.9623 59.9984 43.4701 60 44V58Z" fill="#231F20"/>
<path d="M47 44H35C34.2044 44 33.4413 44.3161 32.8787 44.8787C32.3161 45.4413 32 46.2044 32 47V55C32 55.7956 32.3161 56.5587 32.8787 57.1213C33.4413 57.6839 34.2044 58 35 58H47C47.7956 58 48.5587 57.6839 49.1213 57.1213C49.6839 56.5587 50 55.7956 50 55V47C50 46.2044 49.6839 45.4413 49.1213 44.8787C48.5587 44.3161 47.7956 44 47 44V44ZM48 55C48 55.2652 47.8946 55.5196 47.7071 55.7071C47.5196 55.8946 47.2652 56 47 56H35C34.7348 56 34.4804 55.8946 34.2929 55.7071C34.1054 55.5196 34 55.2652 34 55V47C34 46.7348 34.1054 46.4804 34.2929 46.2929C34.4804 46.1054 34.7348 46 35 46H47C47.2652 46 47.5196 46.1054 47.7071 46.2929C47.8946 46.4804 48 46.7348 48 47V55Z" fill="#231F20"/>
<path d="M55 52C54.4067 52 53.8266 52.1759 53.3333 52.5056C52.8399 52.8352 52.4554 53.3038 52.2284 53.852C52.0013 54.4001 51.9419 55.0033 52.0576 55.5853C52.1734 56.1672 52.4591 56.7018 52.8787 57.1213C53.2982 57.5409 53.8328 57.8266 54.4147 57.9424C54.9967 58.0581 55.5999 57.9987 56.148 57.7716C56.6962 57.5446 57.1648 57.1601 57.4944 56.6667C57.8241 56.1734 58 55.5933 58 55C58 54.2044 57.6839 53.4413 57.1213 52.8787C56.5587 52.3161 55.7957 52 55 52ZM55 56C54.8022 56 54.6089 55.9414 54.4444 55.8315C54.28 55.7216 54.1518 55.5654 54.0761 55.3827C54.0004 55.2 53.9806 54.9989 54.0192 54.8049C54.0578 54.6109 54.153 54.4327 54.2929 54.2929C54.4327 54.153 54.6109 54.0578 54.8049 54.0192C54.9989 53.9806 55.2 54.0004 55.3827 54.0761C55.5654 54.1518 55.7216 54.28 55.8315 54.4444C55.9414 54.6089 56 54.8022 56 55C56 55.2652 55.8946 55.5196 55.7071 55.7071C55.5196 55.8946 55.2652 56 55 56Z" fill="#231F20"/>
<path d="M55 44C54.4067 44 53.8266 44.1759 53.3333 44.5056C52.8399 44.8352 52.4554 45.3038 52.2284 45.852C52.0013 46.4001 51.9419 47.0033 52.0576 47.5853C52.1734 48.1672 52.4591 48.7018 52.8787 49.1213C53.2982 49.5409 53.8328 49.8266 54.4147 49.9424C54.9967 50.0581 55.5999 49.9987 56.148 49.7716C56.6962 49.5446 57.1648 49.1601 57.4944 48.6667C57.8241 48.1734 58 47.5933 58 47C58 46.2044 57.6839 45.4413 57.1213 44.8787C56.5587 44.3161 55.7957 44 55 44ZM55 48C54.8022 48 54.6089 47.9414 54.4444 47.8315C54.28 47.7216 54.1518 47.5654 54.0761 47.3827C54.0004 47.2 53.9806 46.9989 54.0192 46.8049C54.0578 46.6109 54.153 46.4327 54.2929 46.2929C54.4327 46.153 54.6109 46.0578 54.8049 46.0192C54.9989 45.9806 55.2 46.0004 55.3827 46.0761C55.5654 46.1518 55.7216 46.28 55.8315 46.4444C55.9414 46.6089 56 46.8022 56 47C56 47.2652 55.8946 47.5196 55.7071 47.7071C55.5196 47.8946 55.2652 48 55 48Z" fill="#231F20"/>
<path d="M17 27C17 25.126 14.354 21.2 13.823 20.432C13.7261 20.3059 13.6014 20.2037 13.4587 20.1334C13.316 20.0631 13.1591 20.0266 13 20.0266C12.8409 20.0266 12.684 20.0631 12.5413 20.1334C12.3986 20.2037 12.2739 20.3059 12.177 20.432C11.646 21.2 9 25.126 9 27C9 28.0609 9.42143 29.0783 10.1716 29.8284C10.9217 30.5786 11.9391 31 13 31C14.0609 31 15.0783 30.5786 15.8284 29.8284C16.5786 29.0783 17 28.0609 17 27ZM11 27C11 26.338 11.934 24.526 13 22.821C14.067 24.521 15 26.337 15 27C15 27.5304 14.7893 28.0391 14.4142 28.4142C14.0391 28.7893 13.5304 29 13 29C12.4696 29 11.9609 28.7893 11.5858 28.4142C11.2107 28.0391 11 27.5304 11 27Z" fill="#231F20"/>
<path d="M61 10H54V9C54 8.73479 53.8946 8.48043 53.7071 8.2929C53.5196 8.10536 53.2652 8 53 8H45C44.7348 8 44.4804 8.10536 44.2929 8.2929C44.1054 8.48043 44 8.73479 44 9V10H42.27C41.6793 10.0021 41.1013 9.82805 40.61 9.5L29.62 2.18C29.4288 2.05214 29.1998 1.99336 28.9706 2.01336C28.7415 2.03336 28.5261 2.13095 28.36 2.29L27.86 2.78C27.4426 3.18957 27.1197 3.68549 26.9142 4.23299C26.7087 4.7805 26.6254 5.36633 26.6701 5.94943C26.7149 6.53252 26.8867 7.09877 27.1734 7.60847C27.4602 8.11816 27.8549 8.55898 28.33 8.9L29.88 10H13C12.2044 10 11.4413 10.3161 10.8787 10.8787C10.3161 11.4413 10 12.2044 10 13C10 13.7957 10.3161 14.5587 10.8787 15.1213C11.4413 15.6839 12.2044 16 13 16H20.18C20.0636 16.3207 20.0027 16.6589 20 17C20.0019 17.7405 20.2801 18.4537 20.78 19C20.2784 19.5453 20 20.2591 20 21C20 21.7409 20.2784 22.4547 20.78 23C20.2801 23.5463 20.0019 24.2595 20 25C20.0024 25.7949 20.3192 26.5566 20.8813 27.1187C21.4434 27.6808 22.2051 27.9976 23 28H37.91C38.8575 27.9726 39.7786 27.6818 40.57 27.16L41.54 26.5C42.0349 26.1717 42.6161 25.9977 43.21 26H44V27C44 27.2652 44.1054 27.5196 44.2929 27.7071C44.4804 27.8946 44.7348 28 45 28H53C53.2652 28 53.5196 27.8946 53.7071 27.7071C53.8946 27.5196 54 27.2652 54 27V26H61C61.2652 26 61.5196 25.8946 61.7071 25.7071C61.8946 25.5196 62 25.2652 62 25V11C62 10.7348 61.8946 10.4804 61.7071 10.2929C61.5196 10.1054 61.2652 10 61 10ZM27 26H23C22.7348 26 22.4804 25.8946 22.2929 25.7071C22.1054 25.5196 22 25.2652 22 25C22 24.7348 22.1054 24.4804 22.2929 24.2929C22.4804 24.1054 22.7348 24 23 24H27C27.2652 24 27.5196 24.1054 27.7071 24.2929C27.8946 24.4804 28 24.7348 28 25C28 25.2652 27.8946 25.5196 27.7071 25.7071C27.5196 25.8946 27.2652 26 27 26ZM27 22H23C22.7348 22 22.4804 21.8946 22.2929 21.7071C22.1054 21.5196 22 21.2652 22 21C22 20.7348 22.1054 20.4804 22.2929 20.2929C22.4804 20.1054 22.7348 20 23 20H27C27.2652 20 27.5196 20.1054 27.7071 20.2929C27.8946 20.4804 28 20.7348 28 21C28 21.2652 27.8946 21.5196 27.7071 21.7071C27.5196 21.8946 27.2652 22 27 22ZM27 18H23C22.7348 18 22.4804 17.8946 22.2929 17.7071C22.1054 17.5196 22 17.2652 22 17C22 16.7348 22.1054 16.4804 22.2929 16.2929C22.4804 16.1054 22.7348 16 23 16H27C27.2652 16 27.5196 16.1054 27.7071 16.2929C27.8946 16.4804 28 16.7348 28 17C28 17.2652 27.8946 17.5196 27.7071 17.7071C27.5196 17.8946 27.2652 18 27 18ZM44 24H43.21C42.2208 23.9997 41.2536 24.292 40.43 24.84L39.46 25.49C38.9921 25.8058 38.4443 25.9826 37.88 26H29.82C29.9364 25.6793 29.9973 25.3411 30 25C29.9981 24.2595 29.7199 23.5463 29.22 23C29.7216 22.4547 30 21.7409 30 21C30 20.2591 29.7216 19.5453 29.22 19C29.7199 18.4537 29.9981 17.7405 30 17C29.9976 16.2051 29.6808 15.4434 29.1187 14.8813C28.5566 14.3192 27.7949 14.0024 27 14H13C12.7348 14 12.4804 13.8946 12.2929 13.7071C12.1054 13.5196 12 13.2652 12 13C12 12.7348 12.1054 12.4804 12.2929 12.2929C12.4804 12.1054 12.7348 12 13 12H32C32.04 12 32.07 11.98 32.11 11.98C32.3387 13.3785 33.0561 14.6506 34.1347 15.5698C35.2132 16.4891 36.5829 16.9958 38 17C38.2652 17 38.5196 16.8946 38.7071 16.7071C38.8946 16.5196 39 16.2652 39 16C39 15.7348 38.8946 15.4804 38.7071 15.2929C38.5196 15.1054 38.2652 15 38 15C36.9391 15 35.9217 14.5786 35.1716 13.8284C34.4214 13.0783 34 12.0609 34 11C33.9993 10.8414 33.9608 10.6852 33.8878 10.5443C33.8147 10.4035 33.7092 10.282 33.58 10.19L29.5 7.27C29.2708 7.10456 29.079 6.89276 28.937 6.64834C28.795 6.40392 28.706 6.13237 28.6759 5.85132C28.6457 5.57027 28.675 5.28602 28.7618 5.01703C28.8487 4.74804 28.9912 4.50033 29.18 4.29L39.5 11.16C40.3199 11.7079 41.2839 12.0003 42.27 12H44V24ZM52 26H46V10H52V26ZM60 24H54V12H60V24Z" fill="#231F20"/>
<path d="M45 52H37C36.7348 52 36.4804 52.1054 36.2929 52.2929C36.1054 52.4804 36 52.7348 36 53C36 53.2652 36.1054 53.5196 36.2929 53.7071C36.4804 53.8946 36.7348 54 37 54H45C45.2652 54 45.5196 53.8946 45.7071 53.7071C45.8946 53.5196 46 53.2652 46 53C46 52.7348 45.8946 52.4804 45.7071 52.2929C45.5196 52.1054 45.2652 52 45 52Z" fill="#231F20"/>
<path d="M18 41C18 38.552 14.475 34.206 13.768 33.359C13.671 33.2516 13.5525 33.1657 13.4202 33.107C13.2879 33.0482 13.1448 33.0178 13 33.0178C12.8552 33.0178 12.7121 33.0482 12.5798 33.107C12.4475 33.1657 12.329 33.2516 12.232 33.359C11.525 34.206 8 38.552 8 41C8 42.3261 8.52678 43.5979 9.46447 44.5355C10.4021 45.4732 11.6739 46 13 46C14.3261 46 15.5979 45.4732 16.5355 44.5355C17.4732 43.5979 18 42.3261 18 41V41ZM10 41C10 39.927 11.569 37.471 13 35.6C14.431 37.466 16 39.922 16 41C16 41.7957 15.6839 42.5587 15.1213 43.1213C14.5587 43.6839 13.7956 44 13 44C12.2044 44 11.4413 43.6839 10.8787 43.1213C10.3161 42.5587 10 41.7957 10 41Z" fill="#231F20"/>
</svg>
