<?xml version="1.0" encoding="UTF-8"?>
<!DOCTYPE svg PUBLIC "-//W3C//DTD SVG 1.1//EN" "http://www.w3.org/Graphics/SVG/1.1/DTD/svg11.dtd">
<!-- Creator: CorelDRAW -->
<svg xmlns="http://www.w3.org/2000/svg" xml:space="preserve" width="1.70666in" height="1.70666in" version="1.1" style="shape-rendering:geometricPrecision; text-rendering:geometricPrecision; image-rendering:optimizeQuality; fill-rule:evenodd; clip-rule:evenodd"
viewBox="0 0 1706.66 1706.66"
 xmlns:xlink="http://www.w3.org/1999/xlink"
 xmlns:xodm="http://www.corel.com/coreldraw/odm/2003">
 <defs>
  <style type="text/css">
   <![CDATA[
    .fil0 {fill:black}
   ]]>
  </style>
 </defs>
 <g id="Layer_x0020_1">
  <metadata id="CorelCorpID_0Corel-Layer"/>
  <path class="fil0" d="M1166.83 1152.44l-581.02 0c-16.13,0 -29.24,-13.13 -29.24,-29.26l0 -823.08c0,-16.13 13.11,-29.24 29.24,-29.24l581.02 0c16.12,0 29.26,13.11 29.26,29.24l0 78.18c-6.19,-2.5 -12.94,-3.89 -20.03,-3.89l-299.74 0c-29.47,0 -53.39,23.92 -53.39,53.39l0 567.75c0,29.46 23.92,53.39 53.39,53.39l299.74 0c7.08,0 13.84,-1.39 20.03,-3.89l0 78.18c-0.02,16.11 -13.15,29.25 -29.26,29.25z"/>
  <path class="fil0" d="M1176.06 1015.54l-299.74 0c-11.05,0 -20.02,-8.98 -20.02,-20.02l0 -567.75c0,-11.05 8.97,-20.02 20.02,-20.02l299.74 0c11.05,0 20.02,8.97 20.02,20.02l0 567.75c0,11.04 -8.96,20.02 -20.02,20.02z"/>
  <path class="fil0" d="M560.74 1699.41c-194.28,0 -352.3,-158.04 -352.3,-352.3l0 -398.08c0,-48.33 73.41,-48.32 73.41,0l0 398.09c0,153.77 125.11,278.89 278.89,278.89 153.78,0 278.89,-125.11 278.89,-278.89l0 -214.69c0,-48.34 73.41,-48.33 73.41,0l0 214.69c0,194.26 -158.04,352.29 -352.3,352.29zm863.85 -1618.74l-511.56 0 0 210.22c0,48.33 -73.41,48.33 -73.41,0l0 -246.92c0,-20.26 16.45,-36.7 36.7,-36.7l584.97 0c20.26,0 36.7,16.44 36.7,36.7l0 429.48c0,48.32 -73.41,48.31 -73.41,0l0 -392.78z"/>
  <path class="fil0" d="M1461.3 1205.95c-110.06,0 -196.28,-138.75 -196.28,-315.89 0,-134.32 50.74,-251.08 127.48,-296.33l0 -120.29c0,-11.05 8.98,-20.02 20.02,-20.02l97.57 0c11.05,0 20.02,8.97 20.02,20.02l0 120.29c76.73,45.25 127.48,162.01 127.48,296.33 -0,177.14 -86.23,315.89 -196.29,315.89z"/>
  <path class="fil0" d="M290.98 969.05l-91.65 0c-45.52,0 -82.56,-37.04 -82.56,-82.56l0 -87.76c79.02,41.03 177.77,40.99 256.76,-0.02l0 87.78c0,45.52 -37.04,82.56 -82.56,82.56z"/>
  <path class="fil0" d="M224.87 795.82c-52.36,-4.3 -100.13,-25.06 -138.1,-57.09 1.07,-0.74 2.1,-1.59 3.06,-2.54 21.81,-21.81 53.27,-43.44 33.25,-63.46 -20.02,-20.01 -41.65,11.42 -63.46,33.25 -0.96,0.96 -1.81,1.99 -2.54,3.04 -32.01,-37.96 -52.78,-85.72 -57.07,-138.06 13.74,3.32 33.52,1.06 51.15,1.06 28.09,0 28.09,-42.71 -0.02,-42.71 -17.63,0 -37.41,-2.26 -51.14,1.06 4.3,-52.33 25.06,-100.07 57.06,-138.02 8.69,11.96 38.51,42.5 50.92,42.5 5.47,0 10.93,-2.09 15.11,-6.24 20.06,-19.98 -11.44,-41.68 -33.25,-63.46 -0.98,-0.98 -1.99,-1.83 -3.01,-2.57 37.78,-31.85 85.25,-52.56 137.29,-56.98 -0.2,1.28 -0.32,2.63 -0.32,4.05 0,30.88 -6.96,68.38 21.35,68.38 28.31,0 21.36,-37.46 21.36,-68.38 0,-1.42 -0.11,-2.77 -0.32,-4.04 52.29,4.45 99.96,25.33 137.82,57.44 -12.03,7.39 -24.38,22.92 -36.8,35.34 -20.13,20.15 10.61,49.81 30.21,30.21 12.41,-12.41 27.94,-24.76 35.34,-36.78 32.11,37.87 53.01,85.54 57.46,137.84 -1.28,-0.2 -2.62,-0.32 -4.04,-0.32 -30.87,0 -68.37,-6.96 -68.37,21.36 0,28.31 37.5,21.35 68.37,21.35 1.43,0 2.78,-0.12 4.06,-0.33 -4.44,52.3 -25.33,99.98 -57.44,137.85 -7.39,-12.02 -22.93,-24.38 -35.35,-36.8 -19.9,-19.88 -50.1,10.33 -30.21,30.21 11.69,11.68 24.87,27.89 36.74,35.38 -38.04,32.24 -85.96,53.16 -138.52,57.47 3.32,-13.73 1.06,-33.5 1.06,-51.14 0,-28.11 -42.71,-28.11 -42.71,0 0,17.63 -2.26,37.41 1.06,51.15zm20.28 -184.22c-72.5,0 -79.46,-99.59 -20.88,-118.71 -0,-12.26 1.13,-26.21 1.21,-39.66 0.17,-26.4 40.2,-26.15 40.04,0.25 -0.08,13.43 0.87,27.3 0.73,39.48 58.34,19.3 51.31,118.64 -21.09,118.64zm0 -81.83c-27.5,0 -27.5,41.8 0,41.8 27.5,0 27.51,-41.8 0,-41.8z"/>
  <path class="fil0" d="M1636.24 610.91c-93.87,0 -93.87,-142.65 0,-142.65 93.9,0 93.88,142.65 0,142.65z"/>
  <path class="fil0" d="M1584.94 576.28l-74.87 0c-48.34,0 -48.33,-73.41 0,-73.41l74.87 0c48.34,0 48.34,73.41 0,73.41z"/>
 </g>
</svg>
