<svg version="1.1" id="Layer_1" xmlns="http://www.w3.org/2000/svg" xmlns:xlink="http://www.w3.org/1999/xlink" x="0px" y="0px" viewBox="0 0 24 24" enable-background="new 0 0 24 24" xml:space="preserve">
<g>
	<path fill="#d43f3f" d="M17.5,14.000061c2.7568359,0,5-2.2449255,5-5.0039272c0-2.5791721-4.1289063-8.1768265-4.5996094-8.8062267
		c-0.1894531-0.2531283-0.6113281-0.2531283-0.8007813,0C16.6289063,0.8193074,12.5,6.4169617,12.5,8.9961338
		C12.5,11.7551355,14.7431641,14.000061,17.5,14.000061z M15,8.4957418c0.2763672,0,0.5,0.2238083,0.5,0.500392
		c0,1.1038942,0.8974609,2.0015707,2,2.0015707c0.2763672,0,0.5,0.2238092,0.5,0.5003929
		c0,0.2765846-0.2236328,0.5003929-0.5,0.5003929c-1.6542969,0-3-1.3467598-3-3.0023565
		C14.5,8.7195501,14.7236328,8.4957418,15,8.4957418z" id="id_101"></path>
	<path fill="#303C42" d="M4.6699219,13.8241577l-4.0722656-0.8144531c-0.1455078-0.0292969-0.2988281,0.0087891-0.4150391,0.1035156
		C0.0673828,13.2084351,0,13.3500366,0,13.499939v8c0,0.2763672,0.2236328,0.5,0.5,0.5h3.1328125
		c0.7421875,0,1.3808594-0.5537109,1.4853516-1.2875977l0.7431641-5.2050781
		C5.9736328,14.7191772,5.4511719,13.9799194,4.6699219,13.8241577z" id="id_102"></path>
	<path fill="#303C42" d="M21,17.499939c-0.7194824,0-2.0081177,0.2955933-3.0474854,0.5690308
		C17.9748535,18.210022,18,18.3502197,18,18.499939c0,0.7563477-0.3330078,1.4204102-0.9365234,1.8710938
		c-0.5849609,0.4365234-1.3359375,0.6401367-2.3632813,0.6401367c-1.3505859,0-3.1904297-0.3510742-5.6259766-1.0727539
		c-0.265625-0.0786133-0.4160156-0.3569336-0.3378906-0.621582c0.0791016-0.2641602,0.3583984-0.4160156,0.6210938-0.3374023
		c2.3105469,0.6845703,4.1074219,1.0317383,5.3427734,1.0317383c1.0517578,0,1.5117188-0.2519531,1.765625-0.4418945
		C16.8154297,19.3085327,17,18.9389038,17,18.499939c0-0.0838623-0.0152588-0.1593628-0.0258789-0.2375488
		c-0.18927-1.3804321-2.006897-1.873291-3.8745117-2.2526855c-0.8671875-0.1757813-1.5126953-0.4868164-2.1367188-0.7880859
		C10.1933594,14.8505249,9.4667969,14.499939,8.5,14.499939c-0.3828125,0-0.7871094,0.027832-1.2021484,0.0825195
		c-0.2626953,0.034668-0.453125,0.2680664-0.4335938,0.5327148C6.8789063,15.3095093,6.875,15.4838257,6.8505859,15.6488647
		l-0.7431641,5.206543c-0.0068359,0.046875-0.0205078,0.0908203-0.0322266,0.1352539
		c-0.0009766,0.0043945-0.0253906,0.0961914-0.0263672,0.1000977c-0.0576172,0.2348633,0.0605469,0.4775391,0.28125,0.5761719
		C8.7089844,22.7313843,11.8847656,23.999939,13.5,23.999939c1.9394531,0,5.9326172-1.9628906,8.5742188-3.2617188
		c0.6884766-0.3383789,1.2578125-0.6186523,1.6269531-0.7802734C23.8828125,19.8778687,24,19.6981812,24,19.499939
		C24,18.3222046,22.7666016,17.499939,21,17.499939z" id="id_103"></path>
</g>
<g>
</g>
<g>
</g>
<g>
</g>
<g>
</g>
<g>
</g>
<g>
</g>
<g>
</g>
<g>
</g>
<g>
</g>
<g>
</g>
<g>
</g>
<g>
</g>
<g>
</g>
<g>
</g>
<g>
</g>
</svg>